<svg xmlns="http://www.w3.org/2000/svg" viewBox="0 0 48 48">
  <rect width="48" height="48" rx="10" fill="#070A12"/>
  <g fill="none" stroke="#D6B066" stroke-width="1.6" stroke-linecap="round" stroke-linejoin="round">
    <path d="M23 13c-4.2-3.4-9.4-4.8-15-4 1.9 2.6 2.7 4.7 2.7 7.6m12.3-.6c-5.4-2.3-10.1-2.1-14.2.6 2 2.1 2.9 4.2 3 7.1m11.2-1.3c-4.4-.4-8.1.7-11.1 3.3 1.3 1.8 2 3.8 2.1 6.2"/>
    <path d="M25 13c4.2-3.4 9.4-4.8 15-4-1.9 2.6-2.7 4.7-2.7 7.6m-12.3-.6c5.4-2.3 10.1-2.1 14.2.6-2 2.1-2.9 4.2-3 7.1m-11.2-1.3c4.4-.4 8.1.7 11.1 3.3-1.3 1.8-2 3.8-2.1 6.2"/>
    <path d="M24 9.5c2.8 2.2 6 3.3 9.6 3.5.2 9.4-3.6 17.4-9.6 22.2-6-4.8-9.8-12.8-9.6-22.2 3.6-.2 6.8-1.3 9.6-3.5z"/>
  </g>
  <path d="M24 16.5l1.7 4.8 4.8 1.7-4.8 1.7L24 29.5l-1.7-4.8-4.8-1.7 4.8-1.7z" fill="#D6B066"/>
</svg>
