<svg xmlns="http://www.w3.org/2000/svg" viewBox="0 0 1200 630" width="1200" height="630">
  <rect width="1200" height="630" fill="#06070a"/>
  <g stroke="rgba(232,236,242,.06)" stroke-width="1">
    <path d="M0 90H1200M0 210H1200M0 330H1200M0 450H1200M0 570H1200"/>
    <path d="M120 0V630M320 0V630M520 0V630M720 0V630M920 0V630M1120 0V630"/>
  </g>
  <g transform="translate(96 250)">
    <g fill="none" stroke="#e8b24a" stroke-width="2.2" stroke-linecap="round" stroke-linejoin="round" transform="scale(2.1)">
      <path d="M23 13c-4.2-3.4-9.4-4.8-15-4 1.9 2.6 2.7 4.7 2.7 7.6m12.3-.6c-5.4-2.3-10.1-2.1-14.2.6 2 2.1 2.9 4.2 3 7.1m11.2-1.3c-4.4-.4-8.1.7-11.1 3.3 1.3 1.8 2 3.8 2.1 6.2"/>
      <path d="M25 13c4.2-3.4 9.4-4.8 15-4-1.9 2.6-2.7 4.7-2.7 7.6m-12.3-.6c5.4-2.3 10.1-2.1 14.2.6-2 2.1-2.9 4.2-3 7.1m-11.2-1.3c4.4-.4 8.1.7 11.1 3.3-1.3 1.8-2 3.8-2.1 6.2"/>
      <path d="M24 9.5c2.8 2.2 6 3.3 9.6 3.5.2 9.4-3.6 17.4-9.6 22.2-6-4.8-9.8-12.8-9.6-22.2 3.6-.2 6.8-1.3 9.6-3.5z"/>
    </g>
    <path d="M50.4 34.6l3.6 10.1 10.1 3.6-10.1 3.6-3.6 10.1-3.6-10.1-10.1-3.6 10.1-3.6z" fill="#e8b24a" transform="scale(2.1)"/>
  </g>
  <text x="232" y="300" font-family="'Space Grotesk',sans-serif" font-size="84" font-weight="600" fill="#e8ecf2" letter-spacing="-2">Cherubim</text>
  <text x="234" y="356" font-family="'JetBrains Mono',monospace" font-size="24" fill="#e8b24a" letter-spacing="3">AGENTIC AI RED TEAM</text>
  <text x="234" y="408" font-family="'Space Grotesk',sans-serif" font-size="30" fill="#8b94a6">Automated penetration testing across your entire stack,</text>
  <text x="234" y="448" font-family="'Space Grotesk',sans-serif" font-size="30" fill="#8b94a6">with proof, not guesswork.</text>
  <text x="96" y="586" font-family="'JetBrains Mono',monospace" font-size="20" fill="#5b6479" letter-spacing="2">A HESED &amp; EMET PLATFORM</text>
</svg>
